<svg width="544" height="598" viewBox="0 0 544 598" fill="none" xmlns="http://www.w3.org/2000/svg">
<path d="M874.041 602.231C874.041 609.364 678.523 615.147 437.336 615.147C196.15 615.147 0.632812 609.365 0.632812 602.231C0.632812 595.099 196.151 589.316 437.338 589.316C678.525 589.316 874.041 595.099 874.041 602.231Z" fill="#070E17"/>
<path d="M107.16 599.323C107.16 599.323 96.582 568.477 75.4388 574.323C54.2956 580.169 53.1534 562.358 42.2953 561.834C31.4372 561.31 10.865 573.905 10.865 599.323H107.16Z" fill="#F78047"/>
<path d="M686.512 544.805C769.017 544.805 835.901 477.922 835.901 395.416C835.901 312.911 769.017 246.027 686.512 246.027C604.007 246.027 537.123 312.911 537.123 395.416C537.123 477.922 604.007 544.805 686.512 544.805Z" fill="#F8C9B4"/>
<path d="M619.922 428.474H234.489V456.753H619.922V428.474Z" fill="#803425"/>
<path d="M320.523 443.318H107.161V547.223H320.523V443.318Z" fill="#973D2B"/>
<path d="M320.523 547.223H107.161V599.323H320.523V547.223Z" fill="#5F2D23"/>
<path d="M134.962 470.388C133.362 470.388 131.85 470.784 130.413 471.372C131.093 471.095 131.784 470.844 132.505 470.692C139.307 472.129 144.494 479.355 144.494 488.111V527.27C144.494 530.05 143.927 532.647 142.998 534.988H147.91C148.839 532.647 149.408 530.05 149.408 527.27V488.111C149.407 478.323 142.939 470.388 134.962 470.388Z" fill="#242424"/>
<path d="M122.75 478.73C122.994 478.254 123.268 477.806 123.548 477.362C123.268 477.808 122.994 478.252 122.75 478.73Z" fill="#F1F1F1"/>
<path d="M121.561 481.571C121.709 481.112 121.901 480.681 122.081 480.243C121.901 480.683 121.709 481.11 121.561 481.571Z" fill="#F1F1F1"/>
<path d="M126.133 474.177C126.581 473.75 127.043 473.346 127.532 472.986C127.043 473.347 126.583 473.746 126.133 474.177Z" fill="#F1F1F1"/>
<path d="M124.295 476.252C124.639 475.788 125.003 475.348 125.386 474.932C125.003 475.352 124.639 475.786 124.295 476.252Z" fill="#F1F1F1"/>
<path d="M128.2 472.54C128.758 472.178 129.327 471.832 129.925 471.558C129.325 471.834 128.76 472.174 128.2 472.54Z" fill="#F1F1F1"/>
<path d="M122.081 480.243C122.29 479.729 122.502 479.215 122.75 478.73C122.5 479.215 122.292 479.727 122.081 480.243Z" fill="white"/>
<path d="M123.548 477.364C123.786 476.983 124.033 476.61 124.295 476.254C124.029 476.608 123.788 476.981 123.548 477.364Z" fill="white"/>
<path d="M125.386 474.934C125.629 474.67 125.879 474.421 126.133 474.177C125.877 474.419 125.629 474.67 125.386 474.934Z" fill="white"/>
<path d="M121.054 483.572C121.201 482.893 121.351 482.215 121.56 481.571C121.349 482.217 121.201 482.893 121.054 483.572Z" fill="white"/>
<path d="M120.516 488.111C120.516 486.95 120.622 485.821 120.796 484.722C120.62 485.821 120.516 486.95 120.516 488.111Z" fill="white"/>
<path d="M127.531 472.984C127.748 472.823 127.975 472.687 128.198 472.54C127.975 472.687 127.748 472.825 127.531 472.984Z" fill="white"/>
<path d="M129.924 471.558C130.082 471.486 130.25 471.439 130.411 471.372C130.25 471.439 130.084 471.486 129.924 471.558Z" fill="white"/>
<path d="M144.492 488.111C144.492 479.355 139.307 472.129 132.503 470.692C131.782 470.844 131.091 471.094 130.411 471.372C130.248 471.439 130.082 471.484 129.924 471.558C129.325 471.832 128.758 472.176 128.199 472.54C127.976 472.686 127.749 472.825 127.532 472.984C127.043 473.344 126.581 473.75 126.133 474.175C125.877 474.419 125.627 474.668 125.386 474.932C125.003 475.348 124.639 475.788 124.295 476.252C124.033 476.608 123.787 476.981 123.548 477.362C123.268 477.804 122.994 478.252 122.75 478.73C122.502 479.215 122.29 479.727 122.081 480.243C121.901 480.681 121.712 481.112 121.561 481.571C121.352 482.215 121.201 482.893 121.054 483.572C120.97 483.957 120.859 484.327 120.794 484.722C120.62 485.821 120.515 486.951 120.515 488.111V527.27C120.515 530.049 121.082 532.647 122.013 534.988H142.996C143.925 532.647 144.492 530.049 144.492 527.27V488.111Z" fill="#191818"/>
<path d="M174.451 470.388C172.851 470.388 171.34 470.784 169.902 471.372C170.583 471.095 171.273 470.844 171.995 470.692C178.797 472.129 183.983 479.355 183.983 488.111V527.27C183.983 530.05 183.416 532.647 182.487 534.988H187.4C188.329 532.647 188.896 530.05 188.896 527.27V488.111C188.896 478.323 182.43 470.388 174.451 470.388Z" fill="#242424"/>
<path d="M162.242 478.73C162.486 478.254 162.76 477.806 163.04 477.362C162.76 477.808 162.486 478.252 162.242 478.73Z" fill="#242424"/>
<path d="M161.052 481.571C161.201 481.112 161.392 480.681 161.572 480.243C161.392 480.683 161.201 481.11 161.052 481.571Z" fill="#242424"/>
<path d="M165.625 474.177C166.073 473.75 166.534 473.346 167.023 472.986C166.534 473.347 166.075 473.746 165.625 474.177Z" fill="#242424"/>
<path d="M163.787 476.252C164.131 475.788 164.495 475.348 164.878 474.932C164.495 475.352 164.131 475.786 163.787 476.252Z" fill="#242424"/>
<path d="M167.692 472.54C168.249 472.178 168.818 471.832 169.417 471.558C168.814 471.834 168.249 472.174 167.692 472.54Z" fill="#242424"/>
<path d="M161.573 480.243C161.782 479.729 161.993 479.215 162.241 478.73C161.991 479.215 161.784 479.727 161.573 480.243Z" fill="#191818"/>
<path d="M163.037 477.364C163.276 476.983 163.522 476.61 163.784 476.254C163.52 476.608 163.28 476.981 163.037 477.364Z" fill="#191818"/>
<path d="M164.878 474.934C165.12 474.67 165.371 474.421 165.625 474.177C165.369 474.419 165.12 474.67 164.878 474.934Z" fill="#191818"/>
<path d="M160.545 483.572C160.692 482.893 160.843 482.215 161.052 481.571C160.841 482.217 160.692 482.893 160.545 483.572Z" fill="#191818"/>
<path d="M167.023 472.984C167.24 472.823 167.467 472.687 167.69 472.54C167.467 472.687 167.24 472.825 167.023 472.984Z" fill="#191818"/>
<path d="M169.415 471.558C169.573 471.486 169.742 471.439 169.902 471.372C169.742 471.439 169.575 471.486 169.415 471.558Z" fill="#191818"/>
<path d="M183.983 488.111C183.983 479.355 178.797 472.129 171.995 470.692C171.273 470.844 170.583 471.094 169.902 471.372C169.742 471.439 169.573 471.484 169.415 471.558C168.817 471.832 168.249 472.176 167.69 472.54C167.467 472.686 167.238 472.825 167.023 472.984C166.534 473.344 166.073 473.75 165.625 474.175C165.369 474.419 165.118 474.668 164.878 474.932C164.494 475.348 164.131 475.788 163.786 476.252C163.524 476.608 163.278 476.981 163.039 477.362C162.76 477.804 162.486 478.252 162.241 478.73C161.993 479.215 161.782 479.727 161.573 480.243C161.393 480.681 161.201 481.112 161.052 481.571C160.843 482.215 160.693 482.893 160.546 483.572C160.462 483.957 160.35 484.327 160.286 484.722C160.112 485.821 160.006 486.951 160.006 488.111V527.27C160.006 530.049 160.573 532.647 161.504 534.988H182.487C183.416 532.647 183.983 530.049 183.983 527.27V488.111Z" fill="#191818"/>
<path d="M213.943 470.388C212.343 470.388 210.831 470.784 209.394 471.372C210.075 471.095 210.765 470.844 211.487 470.692C218.289 472.129 223.475 479.355 223.475 488.111V527.27C223.475 530.05 222.908 532.647 221.979 534.988H226.892C227.821 532.647 228.388 530.05 228.388 527.27V488.111C228.388 478.323 221.922 470.388 213.943 470.388Z" fill="#242424"/>
<path d="M201.734 478.73C201.978 478.254 202.252 477.806 202.532 477.362C202.252 477.808 201.976 478.252 201.734 478.73Z" fill="#242424"/>
<path d="M200.542 481.571C200.693 481.112 200.883 480.681 201.062 480.243C200.884 480.683 200.693 481.11 200.542 481.571Z" fill="#242424"/>
<path d="M205.117 474.177C205.565 473.75 206.026 473.346 206.515 472.986C206.026 473.347 205.567 473.746 205.117 474.177Z" fill="#242424"/>
<path d="M203.279 476.252C203.623 475.788 203.987 475.348 204.37 474.932C203.987 475.352 203.623 475.786 203.279 476.252Z" fill="#242424"/>
<path d="M207.182 472.54C207.739 472.178 208.308 471.832 208.907 471.558C208.306 471.834 207.741 472.174 207.182 472.54Z" fill="#242424"/>
<path d="M201.064 480.243C201.274 479.729 201.485 479.215 201.733 478.73C201.483 479.215 201.276 479.727 201.064 480.243Z" fill="#191818"/>
<path d="M202.529 477.364C202.768 476.983 203.014 476.61 203.276 476.254C203.012 476.608 202.772 476.981 202.529 477.364Z" fill="#191818"/>
<path d="M204.37 474.934C204.612 474.67 204.862 474.421 205.117 474.177C204.859 474.419 204.612 474.67 204.37 474.934Z" fill="#191818"/>
<path d="M200.036 483.572C200.182 482.893 200.333 482.215 200.542 481.571C200.333 482.217 200.184 482.893 200.036 483.572Z" fill="#191818"/>
<path d="M206.515 472.984C206.732 472.823 206.959 472.687 207.182 472.54C206.959 472.687 206.732 472.825 206.515 472.984Z" fill="#191818"/>
<path d="M223.475 488.111C223.475 479.355 218.288 472.129 211.486 470.692C210.765 470.844 210.074 471.094 209.394 471.372C209.231 471.439 209.065 471.484 208.907 471.558C208.308 471.832 207.741 472.176 207.182 472.54C206.959 472.686 206.732 472.825 206.515 472.984C206.026 473.344 205.564 473.75 205.117 474.175C204.86 474.419 204.61 474.668 204.369 474.932C203.986 475.348 203.622 475.788 203.278 476.252C203.014 476.608 202.77 476.981 202.531 477.362C202.251 477.804 201.978 478.252 201.733 478.73C201.485 479.215 201.274 479.727 201.064 480.243C200.884 480.681 200.695 481.112 200.544 481.571C200.335 482.215 200.184 482.893 200.038 483.572C199.953 483.957 199.842 484.327 199.777 484.722C199.603 485.821 199.5 486.951 199.5 488.111V527.27C199.5 530.049 200.069 532.647 200.998 534.988H221.981C222.91 532.647 223.477 530.049 223.477 527.27L223.475 488.111Z" fill="#191818"/>
<path d="M253.434 470.388C251.835 470.388 250.323 470.784 248.885 471.372C249.566 471.095 250.256 470.844 250.978 470.692C257.78 472.129 262.967 479.355 262.967 488.111V527.27C262.967 530.05 262.399 532.647 261.471 534.988H266.383C267.312 532.647 267.881 530.05 267.881 527.27V488.111C267.879 478.323 261.414 470.388 253.434 470.388Z" fill="#242424"/>
<path d="M241.225 478.73C241.47 478.254 241.743 477.806 242.023 477.362C241.743 477.808 241.468 478.252 241.225 478.73Z" fill="#242424"/>
<path d="M240.035 481.571C240.184 481.112 240.376 480.681 240.556 480.243C240.376 480.683 240.184 481.11 240.035 481.571Z" fill="#242424"/>
<path d="M244.608 474.177C245.056 473.75 245.518 473.346 246.007 472.986C245.518 473.347 245.058 473.746 244.608 474.177Z" fill="#242424"/>
<path d="M242.768 476.252C243.112 475.788 243.476 475.348 243.859 474.932C243.478 475.352 243.114 475.786 242.768 476.252Z" fill="#242424"/>
<path d="M246.673 472.54C247.233 472.178 247.8 471.832 248.398 471.558C247.798 471.834 247.233 472.174 246.673 472.54Z" fill="#242424"/>
<path d="M240.554 480.243C240.763 479.729 240.975 479.215 241.223 478.73C240.975 479.215 240.765 479.727 240.554 480.243Z" fill="#191818"/>
<path d="M242.021 477.364C242.26 476.983 242.506 476.61 242.768 476.254C242.504 476.608 242.262 476.981 242.021 477.364Z" fill="#191818"/>
<path d="M243.859 474.934C244.102 474.67 244.352 474.421 244.606 474.177C244.35 474.419 244.104 474.67 243.859 474.934Z" fill="#191818"/>
<path d="M239.527 483.572C239.674 482.893 239.824 482.215 240.034 481.571C239.824 482.217 239.676 482.893 239.527 483.572Z" fill="#191818"/>
<path d="M246.006 472.984C246.223 472.823 246.45 472.687 246.673 472.54C246.45 472.687 246.223 472.825 246.006 472.984Z" fill="#191818"/>
<path d="M262.967 488.111C262.967 479.355 257.782 472.129 250.978 470.692C250.256 470.844 249.566 471.094 248.885 471.372C248.723 471.439 248.557 471.484 248.398 471.558C247.8 471.832 247.233 472.176 246.674 472.54C246.451 472.686 246.224 472.825 246.007 472.984C245.518 473.344 245.056 473.75 244.608 474.175C244.352 474.419 244.102 474.668 243.861 474.932C243.478 475.348 243.114 475.788 242.77 476.252C242.508 476.608 242.261 476.981 242.023 477.362C241.743 477.804 241.469 478.252 241.225 478.73C240.977 479.215 240.765 479.727 240.556 480.243C240.376 480.681 240.184 481.112 240.036 481.571C239.827 482.215 239.676 482.893 239.529 483.572C239.445 483.957 239.334 484.327 239.269 484.722C239.095 485.821 238.99 486.951 238.99 488.111V527.27C238.99 530.049 239.559 532.647 240.488 534.988H261.47C262.399 532.647 262.967 530.049 262.967 527.27V488.111Z" fill="#191818"/>
<path d="M292.926 470.388C291.326 470.388 289.815 470.784 288.377 471.372C289.058 471.095 289.748 470.844 290.47 470.692C297.272 472.129 302.458 479.355 302.458 488.111V527.27C302.458 530.05 301.891 532.647 300.962 534.988H305.875C306.804 532.647 307.371 530.05 307.371 527.27V488.111C307.371 478.323 300.905 470.388 292.926 470.388Z" fill="#242424"/>
<path d="M280.715 478.73C280.96 478.254 281.233 477.806 281.513 477.362C281.233 477.808 280.96 478.252 280.715 478.73Z" fill="#242424"/>
<path d="M279.526 481.571C279.674 481.112 279.866 480.681 280.046 480.243C279.868 480.683 279.676 481.11 279.526 481.571Z" fill="#242424"/>
<path d="M284.1 474.177C284.548 473.75 285.01 473.346 285.498 472.986C285.008 473.347 284.548 473.746 284.1 474.177Z" fill="#242424"/>
<path d="M282.26 476.252C282.604 475.788 282.968 475.348 283.351 474.932C282.968 475.352 282.606 475.786 282.26 476.252Z" fill="#242424"/>
<path d="M286.165 472.54C286.723 472.178 287.292 471.832 287.89 471.558C287.29 471.834 286.725 472.174 286.165 472.54Z" fill="#242424"/>
<path d="M280.046 480.243C280.255 479.729 280.467 479.215 280.715 478.73C280.467 479.215 280.257 479.727 280.046 480.243Z" fill="#191818"/>
<path d="M281.513 477.364C281.752 476.983 281.998 476.61 282.26 476.254C281.996 476.608 281.753 476.981 281.513 477.364Z" fill="#191818"/>
<path d="M283.351 474.934C283.593 474.67 283.844 474.421 284.098 474.177C283.842 474.419 283.593 474.67 283.351 474.934Z" fill="#191818"/>
<path d="M279.019 483.572C279.166 482.893 279.316 482.215 279.526 481.571C279.316 482.217 279.168 482.893 279.019 483.572Z" fill="#191818"/>
<path d="M285.498 472.984C285.715 472.823 285.942 472.687 286.165 472.54C285.94 472.687 285.715 472.825 285.498 472.984Z" fill="#191818"/>
<path d="M302.459 488.111C302.459 479.355 297.272 472.129 290.47 470.692C289.748 470.844 289.058 471.094 288.377 471.372C288.215 471.439 288.049 471.484 287.89 471.558C287.292 471.832 286.725 472.176 286.165 472.54C285.942 472.686 285.714 472.825 285.499 472.984C285.01 473.344 284.548 473.75 284.1 474.175C283.844 474.419 283.594 474.668 283.353 474.932C282.97 475.348 282.606 475.788 282.262 476.252C282 476.608 281.753 476.981 281.515 477.362C281.235 477.804 280.961 478.252 280.717 478.73C280.468 479.215 280.257 479.727 280.048 480.243C279.868 480.681 279.676 481.112 279.528 481.571C279.318 482.215 279.168 482.893 279.021 483.572C278.937 483.957 278.824 484.327 278.761 484.722C278.587 485.821 278.481 486.951 278.481 488.111V527.27C278.481 530.049 279.049 532.647 279.98 534.988H300.962C301.891 532.647 302.459 530.049 302.459 527.27V488.111Z" fill="#191818"/>
<path d="M320.525 547.222H533.888V443.317H320.525V547.222Z" fill="#8A3828"/>
<path d="M320.525 599.322H533.887V547.221H320.525V599.322Z" fill="#4B231C"/>
<path d="M506.087 470.388C507.687 470.388 509.199 470.784 510.636 471.372C509.956 471.095 509.265 470.844 508.544 470.692C501.742 472.129 496.555 479.355 496.555 488.111V527.27C496.555 530.05 497.122 532.647 498.051 534.988H493.138C492.21 532.647 491.642 530.05 491.642 527.27V488.111C491.642 478.323 498.11 470.388 506.087 470.388Z" fill="#252525"/>
<path d="M518.298 478.73C518.054 478.254 517.78 477.806 517.5 477.362C517.78 477.808 518.054 478.252 518.298 478.73Z" fill="#252525"/>
<path d="M519.488 481.571C519.337 481.112 519.147 480.681 518.968 480.243C519.147 480.683 519.339 481.11 519.488 481.571Z" fill="#252525"/>
<path d="M514.915 474.177C514.468 473.75 514.006 473.346 513.517 472.986C514.006 473.347 514.466 473.746 514.915 474.177Z" fill="#252525"/>
<path d="M516.754 476.252C516.41 475.788 516.046 475.348 515.663 474.932C516.046 475.352 516.41 475.786 516.754 476.252Z" fill="#252525"/>
<path d="M512.848 472.54C512.291 472.178 511.722 471.832 511.123 471.558C511.724 471.834 512.289 472.174 512.848 472.54Z" fill="#252525"/>
<path d="M518.968 480.243C518.758 479.729 518.547 479.215 518.299 478.73C518.549 479.215 518.756 479.727 518.968 480.243Z" fill="#191818"/>
<path d="M517.501 477.364C517.262 476.983 517.016 476.61 516.754 476.254C517.02 476.608 517.26 476.981 517.501 477.364Z" fill="#191818"/>
<path d="M515.662 474.934C515.42 474.67 515.169 474.421 514.915 474.177C515.171 474.419 515.42 474.67 515.662 474.934Z" fill="#191818"/>
<path d="M519.995 483.572C519.848 482.893 519.697 482.215 519.488 481.571C519.699 482.217 519.848 482.893 519.995 483.572Z" fill="#191818"/>
<path d="M520.533 488.111C520.533 486.95 520.427 485.821 520.255 484.722C520.429 485.821 520.533 486.95 520.533 488.111Z" fill="#191818"/>
<path d="M513.517 472.984C513.3 472.823 513.073 472.687 512.85 472.54C513.073 472.687 513.298 472.825 513.517 472.984Z" fill="#191818"/>
<path d="M511.125 471.558C510.967 471.486 510.799 471.439 510.638 471.372C510.799 471.439 510.965 471.486 511.125 471.558Z" fill="#191818"/>
<path d="M496.557 488.111C496.557 479.355 501.742 472.129 508.546 470.692C509.267 470.844 509.958 471.094 510.638 471.372C510.801 471.439 510.967 471.484 511.125 471.558C511.724 471.832 512.291 472.176 512.85 472.54C513.073 472.686 513.3 472.825 513.517 472.984C514.006 473.344 514.468 473.75 514.915 474.175C515.172 474.419 515.422 474.668 515.663 474.932C516.046 475.348 516.41 475.788 516.754 476.252C517.016 476.608 517.262 476.981 517.501 477.362C517.781 477.804 518.054 478.252 518.299 478.73C518.547 479.215 518.758 479.727 518.968 480.243C519.148 480.681 519.337 481.112 519.488 481.571C519.697 482.215 519.848 482.893 519.994 483.572C520.079 483.957 520.19 484.327 520.255 484.722C520.429 485.821 520.532 486.951 520.532 488.111V527.27C520.532 530.049 519.963 532.647 519.034 534.988H498.051C497.122 532.647 496.555 530.049 496.555 527.27V488.111H496.557Z" fill="#191818"/>
<path d="M466.595 470.388C468.195 470.388 469.707 470.784 471.144 471.372C470.464 471.095 469.773 470.844 469.052 470.692C462.25 472.129 457.063 479.355 457.063 488.111V527.27C457.063 530.05 457.63 532.647 458.559 534.988H453.646C452.718 532.647 452.15 530.05 452.15 527.27V488.111C452.15 478.323 458.618 470.388 466.595 470.388Z" fill="#252525"/>
<path d="M478.807 478.73C478.562 478.254 478.288 477.806 478.009 477.362C478.288 477.808 478.562 478.252 478.807 478.73Z" fill="#252525"/>
<path d="M479.996 481.571C479.845 481.112 479.656 480.681 479.476 480.243C479.656 480.683 479.847 481.11 479.996 481.571Z" fill="#252525"/>
<path d="M475.423 474.177C474.976 473.75 474.514 473.346 474.025 472.986C474.514 473.347 474.974 473.746 475.423 474.177Z" fill="#252525"/>
<path d="M477.262 476.252C476.918 475.788 476.554 475.348 476.171 474.932C476.554 475.352 476.918 475.786 477.262 476.252Z" fill="#252525"/>
<path d="M473.356 472.54C472.799 472.178 472.23 471.832 471.631 471.558C472.232 471.834 472.797 472.174 473.356 472.54Z" fill="#252525"/>
<path d="M479.475 480.243C479.266 479.729 479.055 479.215 478.807 478.73C479.057 479.215 479.264 479.727 479.475 480.243Z" fill="#191818"/>
<path d="M478.009 477.364C477.77 476.983 477.524 476.61 477.262 476.254C477.528 476.608 477.768 476.981 478.009 477.364Z" fill="#191818"/>
<path d="M476.17 474.934C475.928 474.67 475.677 474.421 475.423 474.177C475.679 474.419 475.928 474.67 476.17 474.934Z" fill="#191818"/>
<path d="M480.503 483.572C480.356 482.893 480.205 482.215 479.996 481.571C480.207 482.217 480.356 482.893 480.503 483.572Z" fill="#191818"/>
<path d="M481.04 488.111C481.04 486.95 480.935 485.821 480.762 484.722C480.937 485.821 481.04 486.95 481.04 488.111Z" fill="#191818"/>
<path d="M474.025 472.984C473.808 472.823 473.581 472.687 473.358 472.54C473.581 472.687 473.808 472.825 474.025 472.984Z" fill="#191818"/>
<path d="M471.633 471.558C471.475 471.486 471.306 471.439 471.146 471.372C471.306 471.439 471.473 471.486 471.633 471.558Z" fill="#191818"/>
<path d="M457.065 488.111C457.065 479.355 462.25 472.129 469.054 470.692C469.775 470.844 470.466 471.094 471.146 471.372C471.307 471.439 471.475 471.484 471.633 471.558C472.232 471.832 472.799 472.176 473.358 472.54C473.581 472.686 473.808 472.825 474.025 472.984C474.514 473.344 474.976 473.75 475.423 474.175C475.678 474.419 475.93 474.668 476.171 474.932C476.554 475.348 476.918 475.788 477.262 476.252C477.524 476.608 477.77 476.981 478.009 477.362C478.289 477.804 478.562 478.252 478.807 478.73C479.055 479.215 479.266 479.727 479.476 480.243C479.656 480.681 479.847 481.112 479.996 481.571C480.205 482.215 480.356 482.893 480.502 483.572C480.587 483.957 480.698 484.327 480.763 484.722C480.937 485.821 481.04 486.951 481.04 488.111V527.27C481.04 530.049 480.473 532.647 479.542 534.988H458.561C457.632 532.647 457.065 530.049 457.065 527.27V488.111Z" fill="#191818"/>
<path d="M427.106 470.388C428.706 470.388 430.217 470.784 431.655 471.372C430.974 471.095 430.284 470.844 429.562 470.692C422.76 472.129 417.574 479.355 417.574 488.111V527.27C417.574 530.05 418.141 532.647 419.07 534.988H414.157C413.228 532.647 412.659 530.05 412.659 527.27V488.111C412.661 478.323 419.127 470.388 427.106 470.388Z" fill="#252525"/>
<path d="M439.315 478.73C439.071 478.254 438.797 477.806 438.517 477.362C438.797 477.808 439.073 478.252 439.315 478.73Z" fill="#252525"/>
<path d="M440.504 481.571C440.356 481.112 440.164 480.681 439.984 480.243C440.164 480.683 440.356 481.11 440.504 481.571Z" fill="#252525"/>
<path d="M435.932 474.177C435.484 473.75 435.023 473.346 434.534 472.986C435.023 473.347 435.482 473.746 435.932 474.177Z" fill="#252525"/>
<path d="M437.77 476.252C437.426 475.788 437.062 475.348 436.679 474.932C437.062 475.352 437.426 475.786 437.77 476.252Z" fill="#252525"/>
<path d="M433.865 472.54C433.307 472.178 432.738 471.832 432.14 471.558C432.742 471.834 433.305 472.174 433.865 472.54Z" fill="#252525"/>
<path d="M439.984 480.243C439.775 479.729 439.564 479.215 439.315 478.73C439.566 479.215 439.773 479.727 439.984 480.243Z" fill="#191818"/>
<path d="M438.52 477.364C438.281 476.983 438.035 476.61 437.772 476.254C438.036 476.608 438.277 476.981 438.52 477.364Z" fill="#191818"/>
<path d="M436.679 474.934C436.436 474.67 436.186 474.421 435.932 474.177C436.188 474.419 436.436 474.67 436.679 474.934Z" fill="#191818"/>
<path d="M441.011 483.572C440.864 482.893 440.714 482.215 440.504 481.571C440.716 482.217 440.864 482.893 441.011 483.572Z" fill="#191818"/>
<path d="M434.534 472.984C434.317 472.823 434.09 472.687 433.867 472.54C434.09 472.687 434.317 472.825 434.534 472.984Z" fill="#191818"/>
<path d="M432.142 471.558C431.983 471.486 431.815 471.439 431.655 471.372C431.815 471.439 431.981 471.486 432.142 471.558Z" fill="#191818"/>
<path d="M417.573 488.111C417.573 479.355 422.758 472.129 429.562 470.692C430.284 470.844 430.974 471.094 431.655 471.372C431.815 471.439 431.983 471.484 432.142 471.558C432.74 471.832 433.307 472.176 433.867 472.54C434.09 472.686 434.318 472.825 434.533 472.984C435.022 473.344 435.484 473.75 435.932 474.175C436.188 474.419 436.438 474.668 436.679 474.932C437.062 475.348 437.426 475.788 437.77 476.252C438.032 476.608 438.279 476.981 438.517 477.362C438.797 477.804 439.071 478.252 439.315 478.73C439.564 479.215 439.775 479.727 439.984 480.243C440.164 480.681 440.356 481.112 440.504 481.571C440.713 482.215 440.864 482.893 441.011 483.572C441.095 483.957 441.206 484.327 441.271 484.722C441.445 485.821 441.549 486.951 441.549 488.111V527.27C441.549 530.049 440.981 532.647 440.051 534.988H419.07C418.141 532.647 417.573 530.049 417.573 527.27V488.111Z" fill="#191818"/>
<path d="M387.614 470.388C389.214 470.388 390.725 470.784 392.163 471.372C391.482 471.095 390.792 470.844 390.07 470.692C383.268 472.129 378.082 479.355 378.082 488.111V527.27C378.082 530.05 378.649 532.647 379.578 534.988H374.665C373.736 532.647 373.169 530.05 373.169 527.27V488.111C373.169 478.323 379.635 470.388 387.614 470.388Z" fill="#252525"/>
<path d="M399.823 478.73C399.579 478.254 399.305 477.806 399.025 477.362C399.305 477.808 399.581 478.252 399.823 478.73Z" fill="#252525"/>
<path d="M401.014 481.571C400.864 481.112 400.674 480.681 400.494 480.243C400.672 480.683 400.864 481.11 401.014 481.571Z" fill="#252525"/>
<path d="M396.44 474.177C395.992 473.75 395.531 473.346 395.042 472.986C395.531 473.347 395.99 473.746 396.44 474.177Z" fill="#252525"/>
<path d="M398.28 476.252C397.936 475.788 397.572 475.348 397.189 474.932C397.57 475.352 397.934 475.786 398.28 476.252Z" fill="#252525"/>
<path d="M394.375 472.54C393.817 472.178 393.248 471.832 392.65 471.558C393.25 471.834 393.815 472.174 394.375 472.54Z" fill="#252525"/>
<path d="M400.492 480.243C400.283 479.729 400.072 479.215 399.823 478.73C400.074 479.215 400.281 479.727 400.492 480.243Z" fill="#191818"/>
<path d="M399.027 477.364C398.789 476.983 398.542 476.61 398.28 476.254C398.544 476.608 398.785 476.981 399.027 477.364Z" fill="#191818"/>
<path d="M397.189 474.934C396.946 474.67 396.696 474.421 396.442 474.177C396.698 474.419 396.944 474.67 397.189 474.934Z" fill="#191818"/>
<path d="M401.521 483.572C401.374 482.893 401.224 482.215 401.014 481.571C401.224 482.217 401.372 482.893 401.521 483.572Z" fill="#191818"/>
<path d="M395.042 472.984C394.825 472.823 394.598 472.687 394.375 472.54C394.598 472.687 394.825 472.825 395.042 472.984Z" fill="#191818"/>
<path d="M378.082 488.111C378.082 479.355 383.266 472.129 390.07 470.692C390.792 470.844 391.482 471.094 392.163 471.372C392.325 471.439 392.491 471.484 392.65 471.558C393.248 471.832 393.815 472.176 394.375 472.54C394.598 472.686 394.824 472.825 395.041 472.984C395.53 473.344 395.992 473.75 396.44 474.175C396.696 474.419 396.946 474.668 397.187 474.932C397.57 475.348 397.934 475.788 398.278 476.252C398.54 476.608 398.787 476.981 399.025 477.362C399.305 477.804 399.579 478.252 399.823 478.73C400.072 479.215 400.283 479.727 400.492 480.243C400.672 480.681 400.864 481.112 401.012 481.571C401.222 482.215 401.372 482.893 401.519 483.572C401.603 483.957 401.714 484.327 401.779 484.722C401.953 485.821 402.059 486.951 402.059 488.111V527.27C402.059 530.049 401.489 532.647 400.561 534.988H379.578C378.649 532.647 378.082 530.049 378.082 527.27V488.111Z" fill="#191818"/>
<path d="M348.122 470.388C349.722 470.388 351.234 470.784 352.671 471.372C351.991 471.095 351.3 470.844 350.579 470.692C343.777 472.129 338.59 479.355 338.59 488.111V527.27C338.59 530.05 339.157 532.647 340.088 534.988H335.176C334.247 532.647 333.679 530.05 333.679 527.27V488.111C333.677 478.323 340.143 470.388 348.122 470.388Z" fill="#252525"/>
<path d="M360.332 478.73C360.087 478.254 359.814 477.806 359.534 477.362C359.814 477.808 360.089 478.252 360.332 478.73Z" fill="#252525"/>
<path d="M361.523 481.571C361.372 481.112 361.182 480.681 361.002 480.243C361.18 480.683 361.372 481.11 361.523 481.571Z" fill="#252525"/>
<path d="M356.949 474.177C356.501 473.75 356.039 473.346 355.55 472.986C356.039 473.347 356.499 473.746 356.949 474.177Z" fill="#252525"/>
<path d="M358.789 476.252C358.444 475.788 358.081 475.348 357.697 474.932C358.079 475.352 358.442 475.786 358.789 476.252Z" fill="#252525"/>
<path d="M354.883 472.54C354.326 472.178 353.757 471.832 353.158 471.558C353.759 471.834 354.324 472.174 354.883 472.54Z" fill="#252525"/>
<path d="M361 480.243C360.791 479.729 360.58 479.215 360.332 478.73C360.582 479.215 360.791 479.727 361 480.243Z" fill="#191818"/>
<path d="M359.536 477.364C359.297 476.983 359.051 476.61 358.789 476.254C359.053 476.608 359.295 476.981 359.536 477.364Z" fill="#191818"/>
<path d="M357.697 474.934C357.457 474.67 357.204 474.421 356.95 474.177C357.206 474.419 357.455 474.67 357.697 474.934Z" fill="#191818"/>
<path d="M362.029 483.572C361.883 482.893 361.732 482.215 361.523 481.571C361.732 482.217 361.881 482.893 362.029 483.572Z" fill="#191818"/>
<path d="M355.55 472.984C355.333 472.823 355.106 472.687 354.883 472.54C355.106 472.687 355.333 472.825 355.55 472.984Z" fill="#191818"/>
<path d="M338.59 488.111C338.59 479.355 343.777 472.129 350.579 470.692C351.3 470.844 351.991 471.094 352.671 471.372C352.834 471.439 353 471.484 353.158 471.558C353.757 471.832 354.324 472.176 354.883 472.54C355.106 472.686 355.335 472.825 355.55 472.984C356.039 473.344 356.501 473.75 356.948 474.175C357.205 474.419 357.455 474.668 357.695 474.932C358.079 475.348 358.443 475.788 358.787 476.252C359.049 476.608 359.295 476.981 359.534 477.362C359.813 477.804 360.087 478.252 360.332 478.73C360.58 479.215 360.791 479.727 361.001 480.243C361.181 480.681 361.372 481.112 361.521 481.571C361.73 482.215 361.881 482.893 362.027 483.572C362.111 483.957 362.223 484.327 362.287 484.722C362.462 485.821 362.567 486.951 362.567 488.111V527.27C362.567 530.049 362 532.647 361.069 534.988H340.086C339.157 532.647 338.588 530.049 338.588 527.27L338.59 488.111Z" fill="#191818"/>
<path d="M533.679 547.222H747.041V443.317H533.679V547.222Z" fill="#803425"/>
<path d="M533.678 599.322H747.041V547.221H533.678V599.322Z" fill="#3C1C16"/>
<path d="M427.206 158.697C427.206 158.697 300.024 177.413 275.329 292.753C271.001 312.967 269.7 349.285 274.085 375.765H427.206V158.697Z" fill="#FFB800"/>
<path d="M427.206 158.697C427.206 158.697 554.388 177.413 579.082 292.753C583.41 312.967 584.711 349.285 580.326 375.765H427.206V158.697Z" fill="#FFA500"/>
<path d="M487.258 178.995C511.6 196.34 551.743 232.409 551.743 281.858C551.743 352.782 471.835 375.765 471.835 375.765H580.324C584.711 349.283 583.408 312.967 579.082 292.751C565.948 231.406 523.822 197.396 487.258 178.995Z" fill="#DC7100"/>
<path d="M608.135 402.752H246.279V431.032H608.135V402.752Z" fill="#8A3828"/>
<path d="M107.161 443.318C116.321 443.318 182.201 428.495 185.608 428.474L246.276 421.359V443.318H107.161Z" fill="#3C1C16"/>
<path d="M591.341 375.765H263.07V402.75H591.341V375.765Z" fill="#974838"/>
<path d="M541.543 375.761H544.017C544.017 262.516 487.09 195.012 454.361 165.549C452.337 164.896 450.387 164.29 448.537 163.746C479.916 190.635 541.543 258.319 541.543 375.761Z" fill="#FFDF00"/>
<path d="M312.869 375.761C312.869 258.321 374.493 190.635 405.872 163.746C404.022 164.29 402.073 164.896 400.05 165.549C367.321 195.01 310.395 262.514 310.395 375.761H312.869Z" fill="#FFDF00"/>
<path d="M437.336 160.766C436.411 160.547 435.535 160.345 434.723 160.165C449.878 198.317 468.668 272.224 469.359 375.767H471.835C471.119 264.876 450.287 194.109 437.336 160.766Z" fill="#FFDF00"/>
<path d="M419.688 160.163C418.876 160.343 418.002 160.545 417.077 160.764C404.126 194.107 383.294 264.876 382.578 375.765H385.054C385.742 272.222 404.531 198.315 419.688 160.163Z" fill="#FFDF00"/>
<path d="M608.133 402.75H505.124V431.032H608.133V402.75Z" fill="#6C2C20"/>
<path d="M591.341 402.75V375.765H471.835C471.835 375.765 466.359 402.75 469.052 402.75H505.121H591.341Z" fill="#76382C"/>
<path d="M442.128 99.1314C419.453 99.1314 401.072 80.7496 401.072 58.075C401.072 51.8324 402.572 45.9809 405.063 40.6829C394.852 48.1517 388.144 60.1305 388.144 73.752C388.144 96.4266 406.526 114.808 429.201 114.808C445.633 114.808 459.704 105.09 466.263 91.1442C459.477 96.1098 451.183 99.1314 442.128 99.1314Z" fill="#FFDF00"/>
<path d="M439.37 40.6828L444.725 57.1578H462.047L448.032 67.3392L453.385 83.8142L439.37 73.6327L425.358 83.8142L430.71 67.3392L416.696 57.1578H434.018L439.37 40.6828Z" fill="#FFDF00"/>
<path d="M434.725 133.667C434.725 125.78 429.048 125.78 429.048 125.78V114.417L427.206 112.34L425.363 114.415V125.778C425.363 125.778 419.686 125.778 419.686 133.665C419.686 141.553 425.363 145.059 425.363 145.059L422.526 156.16L427.206 162.455L431.886 156.16L429.046 145.059C429.046 145.059 434.725 141.555 434.725 133.667Z" fill="#FFDF00"/>
<path d="M76.186 480.243C76.186 480.243 46.3203 493.63 63.4993 516.825H76.186V480.243Z" fill="#3C1C16"/>
<path d="M76.186 480.243C76.186 480.243 106.052 493.63 88.8728 516.825H76.186V480.243Z" fill="#803425"/>
<path d="M76.3662 516.825H63.4976V598.803H76.3662V516.825Z" fill="#3C1C16"/>
<path d="M89.0549 516.825H76.3682V598.803H89.0549V516.825Z" fill="#803425"/>
<path d="M81.7837 542.418H69.4548C68.9424 542.418 68.5278 542.003 68.5278 541.491V517.752C68.5278 517.24 68.9424 516.825 69.4548 516.825H81.7837C82.2961 516.825 82.7107 517.24 82.7107 517.752V541.491C82.7126 542.003 82.2961 542.418 81.7837 542.418Z" fill="#191818"/>
<path d="M121.003 594.535C121.003 594.535 117.366 580.572 96.4512 589.988C86.9875 594.25 63.7888 574.206 49.6939 580.57C35.5991 586.935 29.1589 599.321 29.1589 599.321H126.342L121.003 594.535Z" fill="#3C1C16"/>
<path d="M82.3915 353.126L90.6543 355.543L85.4326 352.263L109.122 345.553L107.898 348.448L113.771 344.857C130.752 344.337 136.355 353.597 131.521 355.535L124.369 356.72C120.673 354.464 118.897 353.429 118.897 353.429L120.516 357.358C120.516 357.358 107.362 361.666 95.4556 361.51C87.3551 361.402 85.1686 367.035 73.0431 370.219C70.9877 370.759 69.6793 371.365 68.8031 369.18C66.6127 363.718 69.2784 357.483 74.7407 355.293L82.3915 353.126Z" fill="#974838"/>
<path d="M109.148 353.003C122.828 351.123 129.647 353.546 132.286 354.939C132.047 355.148 131.873 355.396 131.525 355.535L124.373 356.72C120.676 354.464 118.901 353.429 118.901 353.429L120.52 357.358C120.52 357.358 107.366 361.666 95.4595 361.51C87.3589 361.404 85.1724 367.033 73.047 370.219C71.4394 370.641 70.2992 371.056 69.4543 370.193C74.768 366.732 93.4432 355.16 109.148 353.003Z" fill="#793A2D"/>
<path d="M36.4617 599.384C36.9917 559.714 38.8379 520.265 42.5146 480.813C44.5329 461.111 46.6685 441.405 50.4724 421.858C52.4477 412.102 54.3408 402.32 57.511 392.743C60.2099 383.119 64.3599 373.624 70.8568 365.116L75.1418 368.952C64.6631 383.964 61.2914 404.25 57.9452 423.156C54.8082 442.424 53.2926 462.018 51.902 481.566C49.4711 520.703 48.855 560.109 49.5493 599.26L36.4617 599.384Z" fill="#76382C"/>
<path d="M70.9855 348.289L63.5577 343.934L69.5266 345.487L58.1639 323.645L56.8966 326.52L55.4806 319.783C44.2118 307.067 33.6314 309.341 35.5363 314.188L39.5787 320.205C43.7561 321.347 45.7275 321.93 45.7275 321.93L41.7554 323.446C41.7554 323.446 47.6421 335.974 55.9207 344.532C61.5531 350.355 58.9559 355.807 64.9541 366.816C65.9711 368.682 66.4268 370.051 68.6172 369.19C74.0951 367.039 76.8038 360.822 74.6525 355.344L70.9855 348.289Z" fill="#974838"/>
<path d="M52.727 328.734C44.7125 317.489 38.2723 314.189 35.4502 313.223C35.462 313.54 35.3994 313.837 35.5382 314.186L39.5807 320.203C43.7581 321.345 45.7295 321.928 45.7295 321.928L41.7594 323.444C41.7594 323.444 47.6461 335.972 55.9246 344.53C61.5571 350.353 58.9599 355.805 64.9581 366.814C65.7521 368.273 66.2332 369.388 67.4399 369.411C66.3134 363.168 61.9267 341.642 52.727 328.734Z" fill="#793A2D"/>
<path d="M86.4083 375.963L86.1677 384.57L88.0139 378.687L100.519 399.897L97.4092 399.449L102.373 404.219C107.188 420.512 99.6524 428.282 96.5506 424.099L93.5897 417.483C94.8335 413.333 95.385 411.353 95.385 411.353L91.9958 413.917C91.9958 413.917 84.4897 402.287 81.6168 390.732C79.663 382.87 73.6629 382.186 67.5044 371.265C66.46 369.413 65.5408 368.302 67.432 366.9C72.1589 363.395 78.8671 364.391 82.3717 369.118L86.4083 375.963Z" fill="#76382C"/>
<path d="M93.3201 401.809C98.6103 414.565 97.9981 421.775 97.3215 424.68C97.0594 424.502 96.7739 424.396 96.5509 424.097L93.59 417.481C94.8338 413.331 95.3853 411.353 95.3853 411.353L91.9961 413.917C91.9961 413.917 84.49 402.287 81.6171 390.732C79.6633 382.87 73.6632 382.186 67.5047 371.265C66.6891 369.818 65.9968 368.82 66.6168 367.784C71.3144 372.041 87.2476 387.167 93.3201 401.809Z" fill="#642F25"/>
<path d="M69.5052 348.289L76.9331 343.934L70.9642 345.487L82.3269 323.645L83.5942 326.52L85.0102 319.783C96.277 307.067 106.859 309.341 104.955 314.188L100.912 320.205C96.7347 321.347 94.7633 321.93 94.7633 321.93L98.7354 323.446C98.7354 323.446 92.8487 335.974 84.5701 344.532C78.9377 350.355 81.5368 355.807 75.5367 366.816C74.5197 368.682 74.064 370.051 71.8717 369.19C66.3937 367.039 63.685 360.822 65.8363 355.344L69.5052 348.289Z" fill="#76382C"/>
<path d="M87.7653 328.734C95.7798 317.489 102.22 314.189 105.042 313.223C105.03 313.54 105.093 313.837 104.956 314.186L100.914 320.203C96.7362 321.345 94.7648 321.928 94.7648 321.928L98.7349 323.444C98.7349 323.444 92.8482 335.972 84.5697 344.53C78.9372 350.353 81.5364 355.805 75.5362 366.814C74.7422 368.273 74.2611 369.388 73.0544 369.411C74.177 363.168 78.5637 341.642 87.7653 328.734Z" fill="#642F25"/>
<path d="M51.0216 368.836L47.8416 376.837L48.4714 370.704L28.6033 385.245L31.6366 386.062L25.1925 388.481C14.3305 401.545 18.1813 411.66 22.6833 409.044L28.0185 404.135C28.5153 399.832 28.791 397.796 28.791 397.796L30.8914 401.493C30.8914 401.493 42.3832 393.775 49.5881 384.296C54.4911 377.846 60.2721 379.589 70.2463 371.991C71.938 370.702 73.2209 370.045 72.0377 368.009C69.0807 362.92 62.5251 361.185 57.4383 364.14L51.0216 368.836Z" fill="#76382C"/>
<path d="M34.4587 389.846C24.5589 399.472 22.2707 406.339 21.7466 409.274C22.0575 409.214 22.3607 409.231 22.6853 409.042L28.0205 404.133C28.5173 399.83 28.793 397.794 28.793 397.794L30.8935 401.491C30.8935 401.491 42.3852 393.773 49.5901 384.294C54.4911 377.844 60.2742 379.587 70.2483 371.989C71.5704 370.981 72.5991 370.338 72.4387 369.143C66.4366 371.199 45.8234 378.797 34.4587 389.846Z" fill="#642F25"/>
<path d="M58.0999 353.126L49.837 355.543L55.0587 352.263L31.3691 345.555L32.5934 348.45L26.7204 344.859C9.73895 344.339 4.13583 353.599 8.9684 355.537L16.1204 356.722C19.8167 354.466 21.5925 353.431 21.5925 353.431L19.9712 357.36C19.9712 357.36 33.1254 361.668 45.0318 361.512C53.1323 361.404 55.3188 367.037 67.4443 370.221C69.4997 370.761 70.8081 371.367 71.6842 369.182C73.8746 363.72 71.209 357.485 65.7467 355.295L58.0999 353.126Z" fill="#974838"/>
<path d="M31.3453 353.003C17.6651 351.123 10.8455 353.546 8.20728 354.939C8.44587 355.148 8.61993 355.396 8.96805 355.535L16.1201 356.721C19.8164 354.464 21.5922 353.429 21.5922 353.429L19.9709 357.358C19.9709 357.358 33.125 361.666 45.0314 361.51C53.132 361.404 55.3185 367.033 67.4439 370.219C69.0515 370.641 70.1917 371.056 71.0366 370.193C65.7248 366.732 47.0497 355.16 31.3453 353.003Z" fill="#793A2D"/>
</svg>
