<svg width="1439" height="310" viewBox="0 0 1439 310" fill="none" xmlns="http://www.w3.org/2000/svg">
<g clip-path="url(#clip0_20_3847)">
<path d="M0 98.5475L34.3 131.247C68.6 163.547 137 229.547 206 245.547C274.3 261.547 343 229.547 411 245.547C480 261.547 491.5 205.847 559.5 181.047C628.2 156.847 789.5 147.047 850 164.047C910.5 181.047 960 245.547 1029 270.047C1097.1 294.547 1166 245.547 1234 229.247C1302.9 212.547 1371 229.547 1440 229.247C1508.6 229.547 1577 212.547 1646 245.547C1714.3 278.547 1783 359.547 1851 335.347C1920 310.547 1989 180.547 2057 147.547C2125.7 114.547 2194 180.547 2263 229.247C2331.4 278.547 2400 310.547 2469 319.047C2537.1 327.547 2606 310.547 2674 294.547C2742.9 278.547 2811 261.547 2880 221.047C2948.6 180.547 3017 114.547 3086 147.547C3154.3 180.547 3223 310.548 3291 376.247C3360 441.547 3429 441.547 3497 384.347C3565.7 327.547 3634 212.547 3703 196.547C3771.4 180.547 3840 261.548 3909 278.247C3977.1 294.548 4046 245.547 4114 204.747C4182.9 163.547 4251 131.547 4320 131.247C4388.6 131.547 4457 163.547 4526 188.347C4594.3 212.547 4663 229.547 4731 270.047C4800 310.547 4869 376.547 4903 408.847L4937.1 441.547V490.547H4902.9C4868.6 490.547 4800 490.547 4731 490.547C4662.9 490.547 4594 490.547 4526 490.547C4457.1 490.547 4389 490.547 4320 490.547C4251.4 490.547 4183 490.547 4114 490.547C4045.7 490.547 3977 490.547 3909 490.547C3840 490.547 3771 490.547 3703 490.547C3634.3 490.547 3566 490.547 3497 490.547C3428.6 490.547 3360 490.547 3291 490.547C3222.9 490.547 3154 490.547 3086 490.547C3017.1 490.547 2949 490.547 2880 490.547C2811.4 490.547 2743 490.547 2674 490.547C2605.7 490.547 2537 490.547 2469 490.547C2400 490.547 2331 490.547 2263 490.547C2194.3 490.547 2126 490.547 2057 490.547C1988.6 490.547 1920 490.547 1851 490.547C1782.9 490.547 1714 490.547 1646 490.547C1577.1 490.547 1509 490.547 1440 490.547C1371.4 490.547 1303 490.547 1234 490.547C1165.7 490.547 1097 490.547 1029 490.547C960 490.547 891 490.547 823 490.547C754.3 490.547 686 490.547 617 490.547C548.6 490.547 480 490.547 411 490.547C342.9 490.547 274 490.547 206 490.547C137.1 490.547 69 490.547 34 490.547H0V98.5475Z" fill="#070E17"/>
<path d="M-33 196.548H1.3C35.6 196.548 104 196.548 173 172.048C241.3 147.548 310 98.5475 378 90.3475C447 82.5475 536 100.048 584 123.048C653 139.048 721 204.348 790 237.348C858.4 270.348 927 261.548 996 278.248C1064.1 294.548 1133 245.548 1201 237.348C1269.9 229.548 1338 261.548 1407 286.348C1475.6 310.548 1544 327.548 1613 335.348C1681.3 343.548 1750 343.548 1818 302.748C1887 261.548 1956 180.548 2024 163.848C2092.7 147.548 2161 196.548 2230 253.748C2298.4 310.548 2367 376.548 2436 376.248C2504.1 376.548 2573 310.548 2641 270.048C2709.9 229.548 2778 212.548 2847 204.748C2915.6 196.548 2984 196.548 3053 212.848C3121.3 229.548 3190 261.548 3258 245.548C3327 229.548 3396 163.548 3464 131.248C3532.7 98.5475 3601 98.5475 3670 155.748C3738.4 212.548 3807 327.548 3876 343.548C3944.1 359.548 4013 278.548 4081 204.748C4149.9 131.548 4218 65.5475 4287 49.5475C4355.6 33.5475 4424 65.5475 4493 106.748C4561.3 147.548 4630 196.548 4698 229.248C4767 261.548 4836 278.548 4870 286.348L4904.1 294.548V490.548H4869.9C4835.6 490.548 4767 490.548 4698 490.548C4629.9 490.548 4561 490.548 4493 490.548C4424.1 490.548 4356 490.548 4287 490.548C4218.4 490.548 4150 490.548 4081 490.548C4012.7 490.548 3944 490.548 3876 490.548C3807 490.548 3738 490.548 3670 490.548C3601.3 490.548 3533 490.548 3464 490.548C3395.6 490.548 3327 490.548 3258 490.548C3189.9 490.548 3121 490.548 3053 490.548C2984.1 490.548 2916 490.548 2847 490.548C2778.4 490.548 2710 490.548 2641 490.548C2572.7 490.548 2504 490.548 2436 490.548C2367 490.548 2298 490.548 2230 490.548C2161.3 490.548 2093 490.548 2024 490.548C1955.6 490.548 1887 490.548 1818 490.548C1749.9 490.548 1681 490.548 1613 490.548C1544.1 490.548 1476 490.548 1407 490.548C1338.4 490.548 1270 490.548 1201 490.548C1132.7 490.548 1064 490.548 996 490.548C927 490.548 858 490.548 790 490.548C721.3 490.548 653 490.548 584 490.548C515.6 490.548 447 490.548 378 490.548C309.9 490.548 241 490.548 173 490.548C104.1 490.548 36 490.548 1 490.548H-33V196.548Z" fill="#09121E"/>
</g>
<defs>
<clipPath id="clip0_20_3847">
<rect width="1440" height="490" fill="white" transform="translate(0 0.547516)"/>
</clipPath>
</defs>
</svg>
