<svg width="30" height="30" viewBox="0 0 30 30" fill="none" xmlns="http://www.w3.org/2000/svg">
<path d="M4.13046 5.46437L1.71728 5.33135L1.69346 6.26946L1.21615 6.19353L1.21864 4.60291L4.15417 4.93216L4.13046 5.46437Z" fill="#ECF1F4"/>
<path d="M0.858009 6.11743L0.953516 9.99751L2.64803 10.2512L2.95837 6.4726L0.858009 6.11743Z" fill="#ECF1F4"/>
<path opacity="0.3" d="M0.858009 6.13013L0.881829 7.03034L2.91073 7.04293L2.95837 6.47246L0.858009 6.13013Z" fill="#5B5D5E"/>
<path d="M25.8694 5.46437L28.2826 5.33135L28.3064 6.26946L28.7837 6.19353L28.7812 4.60291L25.8457 4.93216L25.8694 5.46437Z" fill="#ECF1F4"/>
<path d="M29.1417 6.11743L29.0462 9.99751L27.3517 10.2512L27.0414 6.4726L29.1417 6.11743Z" fill="#ECF1F4"/>
<path d="M25.8619 26.7784L25.6712 29.1112H23.4753L23.0217 26.7529L25.8619 26.7784Z" fill="#141414"/>
<path d="M23.5707 26.7274L23.4753 29.1113L22.7957 26.7274H23.5707Z" fill="#292B29"/>
<path d="M6.75196 29.1112H4.55621L4.3652 26.7782L7.20557 26.7529L6.75196 29.1112Z" fill="#141414"/>
<path d="M7.43152 26.7529L6.7519 29.0858L6.65651 26.7529H7.43152Z" fill="#292B29"/>
<path d="M25.8767 26.7767H4.34724L3.53578 4.51099L26.4008 4.71382L25.8767 26.7767Z" fill="#ACDCFF"/>
<path d="M26.4198 4.82581V2.28975L23.5064 0.362427H5.53496L3.50786 2.28951L3.55956 4.81501L26.4198 4.82581Z" fill="#D9D4CB"/>
<path d="M24.105 1.75867L24.1002 4.71887L5.5719 4.67484L5.60803 1.78614L24.105 1.75867Z" fill="#292B29"/>
<path d="M25.7727 5.71753L25.5578 17.8119L4.55697 17.7619L4.1509 5.84395L25.7727 5.71753Z" fill="#313156"/>
<path opacity="0.3" d="M4.5887 17.7419L5.83435 5.88135L17.6782 17.7906L4.5887 17.7419Z" fill="#091724"/>
<path opacity="0.3" d="M25.7727 5.71753L25.6159 14.2505L17.6288 5.77162L25.7727 5.71753Z" fill="#091724"/>
<path d="M23.536 2.38586L23.5328 3.37795L22.614 3.39066L22.611 4.21483L22.268 4.21159L22.2681 2.38886H22.6229L22.6258 3.02303H23.2047V2.38886L23.536 2.38586Z" fill="#F09D74"/>
<path opacity="0.3" d="M29.1417 6.13013L29.1178 7.03034L27.089 7.04293L27.0414 6.47246L29.1417 6.13013Z" fill="#5B5D5E"/>
<path d="M17.015 17.794L5.77511 5.83398H6.4501L17.7041 17.7915L17.015 17.794Z" fill="#626498"/>
<path d="M15.1522 17.8118H14.6033L14.5079 5.74193L15.1291 5.74146L15.1522 17.8118Z" fill="#D9D4CB"/>
<path d="M19.3712 23.8213L19.0182 24.9491L21.1283 24.9534L20.7848 23.8164L19.3712 23.8213Z" fill="#C2BFBC"/>
<path d="M21.4132 24.9484L21.0602 23.8206L23.1703 23.8163L22.8268 24.9533L21.4132 24.9484Z" fill="#F8F4E3"/>
<path d="M7.5176 24.9484L7.16459 23.8206L9.27466 23.8163L8.93112 24.9533L7.5176 24.9484Z" fill="#F8F4E3"/>
<path d="M9.55959 23.8213L9.20658 24.9491L11.3167 24.9534L10.9731 23.8164L9.55959 23.8213Z" fill="#C2BFBC"/>
<path d="M4.24878 23.7987L4.28569 24.949L6.39587 24.9532L6.05234 23.8162L4.24878 23.7987Z" fill="#F09D74"/>
<path d="M24.1791 23.8012L23.8261 24.929L25.9362 24.9333L25.9617 23.7987L24.1791 23.8012Z" fill="#F09D74"/>
</svg>
