<svg width="25" height="25" viewBox="0 0 25 25" fill="none" xmlns="http://www.w3.org/2000/svg">
<path d="M6 0C2.71875 0 1.5 1.08398 1.5 4V20.5C1.5 21.1797 1.69922 21.6699 2 22.0312V23.5C2 24.3262 2.67383 25 3.5 25H5.5C6.32617 25 7 24.3262 7 23.5V23H18V23.5C18 24.3262 18.6738 25 19.5 25H21.5C22.3262 25 23 24.3262 23 23.5V22.0312C23.3008 21.6699 23.5 21.1797 23.5 20.5V4.5C23.5 2.32227 23.2305 0 20 0H6ZM7.5 2H18C18.2773 2 18.5 2.22461 18.5 2.5V3.5C18.5 3.77539 18.2773 4 18 4H7.5C7.22461 4 7 3.77539 7 3.5V2.5C7 2.22461 7.22461 2 7.5 2ZM5.5 5.5H19.5C20.5 5.5 21 6 21 7V13C21 14 20.0234 14.4688 19.5 14.4688L5.5 14.5C4.5 14.5 4 14 4 13V7C4 6 4.5 5.5 5.5 5.5ZM1 6C0.449219 6 0 6.44922 0 7V11C0 11.5508 0.449219 12 1 12V6ZM24 6V12C24.5527 12 25 11.5508 25 11V7C25 6.44922 24.5527 6 24 6ZM5.75 17C6.7168 17 7.5 17.7832 7.5 18.75C7.5 19.7168 6.7168 20.5 5.75 20.5C4.7832 20.5 4 19.7168 4 18.75C4 17.7832 4.7832 17 5.75 17ZM19.25 17C20.2168 17 21 17.7832 21 18.75C21 19.7168 20.2168 20.5 19.25 20.5C18.2832 20.5 17.5 19.7168 17.5 18.75C17.5 17.7832 18.2832 17 19.25 17Z" fill="white"/>
</svg>
