<svg width="84" height="84" viewBox="0 0 84 84" fill="none" xmlns="http://www.w3.org/2000/svg">
<path d="M81.541 48.0626C78.3454 44.8486 73.123 44.8486 69.9273 48.0626C66.7317 51.2582 66.7317 56.4808 69.9273 59.6766C71.4794 61.2288 73.543 62.087 75.7342 62.087C77.9254 62.087 79.9891 61.2288 81.541 59.6766C84.7548 56.4808 84.7548 51.2582 81.541 48.0626ZM77.6778 55.7909C76.5701 56.9005 74.864 56.8647 73.801 55.8034C72.7525 54.7549 72.7525 52.9841 73.801 51.9353C74.8779 50.8543 76.6067 50.8707 77.6565 51.9245C78.7672 53.0314 78.7167 54.7588 77.6778 55.7909Z" fill="#F9A926"/>
<path d="M54.7214 53.1757L52.8954 55.0018L31.804 76.0748C30.2155 77.6818 28.097 78.4852 25.9972 78.4852C23.8972 78.4852 21.7972 77.6818 20.1903 76.0748L14.3834 70.2678L8.5762 64.4608C5.36221 61.2468 5.36221 56.0426 8.5762 52.8286L31.4754 29.9296L43.1076 41.5618L54.7214 53.1757Z" fill="#FFC033"/>
<path d="M60.5284 47.3505L54.7216 53.1757L43.1076 41.5617L31.4754 29.9295L37.2822 24.1225C38.3598 23.0451 40.0944 23.0451 41.1538 24.1225L50.85 33.8007L60.5281 43.4789C61.606 44.5565 61.606 46.2911 60.5284 47.3505Z" fill="#F26D76"/>
<path d="M22.1442 72.8974C21.012 76.2574 17.8894 78.5218 14.3468 78.5218H8.26598C6.76842 78.5218 5.52679 79.7452 5.52679 81.261C5.52679 82.7768 4.30338 84 2.78777 84C2.20322 84 1.65541 83.8174 1.19883 83.4522C0.50517 82.9956 0.048584 82.174 0.048584 81.2608C0.048584 76.7322 3.7372 73.0434 8.26598 73.0434H14.3468C15.5154 73.0434 16.5746 72.2948 16.9398 71.1626C17.4146 69.7382 18.9666 68.953 20.4092 69.446C21.8336 69.9208 22.6188 71.473 22.1442 72.8974Z" fill="#D7EBFF"/>
<path d="M22.1442 72.8974C21.012 76.2574 17.8894 78.5218 14.3468 78.5218H8.26601C6.76845 78.5218 5.52682 79.7452 5.52682 81.2609C5.52682 82.7767 4.30341 84 2.7878 84C2.20324 84 1.65544 83.8174 1.19885 83.4522L11.6078 73.0435H14.347C15.5156 73.0435 16.5748 72.2949 16.94 71.1627C17.4148 69.7383 18.9668 68.9531 20.4094 69.4461C21.8337 69.9208 22.6189 71.473 22.1442 72.8974Z" fill="#BDDEFF"/>
<path d="M60.5285 47.3505L54.7216 53.1757L43.1077 41.5617L50.8503 33.8009L60.5283 43.4791C61.606 44.5565 61.606 46.2911 60.5285 47.3505Z" fill="#E65C64"/>
<path d="M54.7214 53.1758L31.804 76.0748C30.2156 77.6818 28.097 78.4852 25.9972 78.4852C23.8972 78.4852 21.7972 77.6818 20.1904 76.0748L14.3834 70.2678L41.3 43.3696L43.1078 41.5618L54.7214 53.1758Z" fill="#F9A926"/>
<path d="M56.6568 30.7269C55.956 30.7269 55.2551 30.4593 54.7202 29.9243C53.6504 28.8553 53.6504 27.121 54.7202 26.051L77.9618 2.80874C79.0317 1.73888 80.7652 1.73888 81.8352 2.80874C82.905 3.87777 82.905 5.61207 81.8352 6.68209L58.5936 29.9245C58.0584 30.4595 57.3575 30.7269 56.6568 30.7269Z" fill="#FFC033"/>
<path d="M80.3086 37.9502C79.7559 37.9502 79.1994 37.7843 78.7161 37.4383C74.299 34.2791 68.5442 33.8217 63.6927 36.2489C62.342 36.9222 60.6949 36.3763 60.0174 35.0238C59.3416 33.6703 59.8899 32.0252 61.2424 31.3485C67.9137 28.0128 75.8315 28.6352 81.9044 32.9837C83.1349 33.8637 83.4184 35.5747 82.5376 36.8054C82.0027 37.5525 81.1611 37.9502 80.3086 37.9502Z" fill="#E65C64"/>
<path d="M50.8478 24.9171C50.6087 24.9171 50.3662 24.8859 50.1256 24.82C48.6659 24.4213 47.8055 22.9164 48.2032 21.4567C49.7503 15.7833 48.6624 9.79662 45.2163 5.03093C44.3299 3.80489 44.6055 2.09208 45.8315 1.20581C47.0586 0.319385 48.7704 0.59501 49.6567 1.82105C54.0775 7.93681 55.4737 15.6184 53.4888 22.8977C53.1563 24.1163 52.0525 24.9171 50.8478 24.9171Z" fill="#F26D76"/>
<path d="M62.9581 9.09398C64.4709 9.09398 65.6972 7.8676 65.6972 6.35479C65.6972 4.84198 64.4709 3.6156 62.9581 3.6156C61.4452 3.6156 60.2189 4.84198 60.2189 6.35479C60.2189 7.8676 61.4452 9.09398 62.9581 9.09398Z" fill="#36D9D9"/>
<path d="M77.5668 25.5288C79.0796 25.5288 80.306 24.3024 80.306 22.7896C80.306 21.2768 79.0796 20.0504 77.5668 20.0504C76.054 20.0504 74.8276 21.2768 74.8276 22.7896C74.8276 24.3024 76.054 25.5288 77.5668 25.5288Z" fill="#43BFBF"/>
<path d="M34.2336 50.4365H28.7554V55.9147H34.2336V50.4365Z" fill="#36D9D9"/>
<path d="M54.7242 29.9271C55.2588 30.4598 55.9573 30.7269 56.6567 30.7269C57.3576 30.7269 58.0585 30.4593 58.5933 29.9243L81.8349 6.68191C82.9036 5.61321 82.9038 3.88235 81.8379 2.81299L54.7242 29.9271Z" fill="#F9A926"/>
<path d="M34.233 50.4368V55.915H28.7548L34.233 50.4368Z" fill="#43BFBF"/>
<path d="M34.9759 2.41037C31.7803 -0.803618 26.5578 -0.803618 23.3622 2.41037C20.1666 5.60598 20.1666 10.8286 23.3622 14.0243C24.9143 15.5765 26.9778 16.4348 29.1691 16.4348C31.3601 16.4348 33.424 15.5765 34.9759 14.0243C38.1897 10.8286 38.1897 5.60598 34.9759 2.41037ZM31.1127 10.1397C30.0004 11.252 28.2938 11.2074 27.2359 10.1512C26.1874 9.10264 26.1874 7.33191 27.2359 6.28323C28.3128 5.20222 30.0415 5.21862 31.0914 6.2724C32.2065 7.38228 32.1468 9.11232 31.1127 10.1397Z" fill="#FFC033"/>
</svg>
