<svg width="77" height="75" viewBox="0 0 77 75" fill="none" xmlns="http://www.w3.org/2000/svg">
<path d="M75.4375 61.3125C76.1624 61.3125 76.75 60.7249 76.75 60C76.75 59.2751 76.1624 58.6875 75.4375 58.6875C74.7126 58.6875 74.125 59.2751 74.125 60C74.125 60.7249 74.7126 61.3125 75.4375 61.3125Z" fill="white"/>
<path d="M9.8125 7.5C10.5374 7.5 11.125 6.91237 11.125 6.1875C11.125 5.46263 10.5374 4.875 9.8125 4.875C9.08763 4.875 8.5 5.46263 8.5 6.1875C8.5 6.91237 9.08763 7.5 9.8125 7.5Z" fill="white"/>
<path d="M6.79377 17.2862C6.54763 17.0401 6.21382 16.9018 5.86576 16.9018C5.5177 16.9018 5.1839 17.0401 4.93776 17.2862L3.93134 18.2927L2.92478 17.2862C2.8037 17.1608 2.65888 17.0608 2.49875 16.9921C2.33862 16.9233 2.16639 16.8871 1.99212 16.8855C1.81784 16.884 1.64502 16.9172 1.48371 16.9832C1.32241 17.0492 1.17587 17.1467 1.05264 17.2699C0.929401 17.3932 0.831944 17.5397 0.76595 17.701C0.699957 17.8623 0.666748 18.0351 0.668262 18.2094C0.669777 18.3837 0.705984 18.5559 0.774771 18.716C0.843557 18.8762 0.943547 19.021 1.0689 19.1421L2.07546 20.1489L1.0689 21.1557C0.943978 21.2769 0.844398 21.4217 0.775961 21.5817C0.707523 21.7417 0.671594 21.9138 0.670265 22.0878C0.668935 22.2618 0.702231 22.4344 0.768216 22.5954C0.8342 22.7565 0.931555 22.9028 1.05462 23.0259C1.17768 23.1489 1.32398 23.2463 1.48503 23.3123C1.64607 23.3783 1.81863 23.4116 1.99266 23.4103C2.1667 23.409 2.33873 23.373 2.49875 23.3046C2.65878 23.2362 2.8036 23.1366 2.92478 23.0117L3.93134 22.005L4.93776 23.0117C5.05906 23.1361 5.20386 23.2352 5.36375 23.3032C5.52364 23.3712 5.69545 23.4068 5.86921 23.4079C6.04296 23.409 6.21521 23.3756 6.37595 23.3096C6.53669 23.2437 6.68274 23.1464 6.8056 23.0235C6.92847 22.9007 7.02572 22.7546 7.0917 22.5939C7.15769 22.4331 7.1911 22.2609 7.19 22.0871C7.1889 21.9134 7.15331 21.7416 7.08529 21.5817C7.01727 21.4218 6.91818 21.277 6.79377 21.1557L5.78708 20.1489L6.79377 19.1419C7.03978 18.8958 7.17798 18.5621 7.17798 18.2141C7.17798 17.8661 7.03978 17.5323 6.79377 17.2862Z" fill="white"/>
<path d="M59.6875 18.3543V14.7187C59.6905 13.3448 59.2134 12.013 58.3387 10.9535C57.464 9.89405 56.2466 9.17343 54.897 8.91622C53.5474 8.65902 52.1503 8.88139 50.9472 9.5449C49.7441 10.2084 48.8107 11.2714 48.3081 12.5501C40.7783 10.4846 32.75 11.2859 25.7771 14.7989C18.8041 18.312 13.3823 24.2869 10.561 31.5673C7.73979 38.8477 7.71969 46.9159 10.5046 54.2102C13.2896 61.5046 18.6816 67.5065 25.6369 71.0542C32.5923 74.6019 40.6165 75.4432 48.1565 73.4153C55.6965 71.3873 62.216 66.6344 66.4534 60.0763C70.6907 53.5182 72.3445 45.6213 71.0946 37.914C69.8448 30.2068 65.7802 23.2373 59.6875 18.3543ZM48.8389 15.4448C49.0237 15.5041 49.2193 15.5218 49.4117 15.4964C49.6041 15.4711 49.7885 15.4034 49.9516 15.2982C50.1147 15.193 50.2525 15.053 50.3549 14.8882C50.4574 14.7233 50.5221 14.5379 50.5442 14.345C50.6368 13.5134 51.0447 12.749 51.6839 12.2091C52.3231 11.6692 53.1451 11.3949 53.9804 11.4428C54.8158 11.4907 55.601 11.8571 56.1744 12.4665C56.7477 13.0759 57.0656 13.882 57.0625 14.7187V18.9933C57.0625 19.1944 57.1088 19.3929 57.1977 19.5733C57.2866 19.7538 57.4157 19.9114 57.5751 20.0341C61.4196 22.9758 64.4618 26.8377 66.4214 31.2641L35.1411 14.4794C39.7181 13.6918 44.4177 14.0226 48.8389 15.4448ZM40 71.8125C33.7955 71.8147 27.7555 69.8177 22.7751 66.1175C17.7948 62.4172 14.1393 57.2107 12.3505 51.2697C10.5618 45.3287 10.7349 38.9694 12.8443 33.1345C14.9536 27.2996 18.887 22.2997 24.0612 18.8759L68.875 42.9224V42.9375C68.8664 50.5929 65.8214 57.9324 60.4082 63.3457C54.9949 68.7589 47.6555 71.8038 40 71.8125Z" fill="white"/>
<path d="M20.3125 10.125C21.0913 10.125 21.8525 9.89407 22.5001 9.46141C23.1476 9.02875 23.6523 8.4138 23.9503 7.69432C24.2483 6.97483 24.3263 6.18313 24.1743 5.41933C24.0224 4.65553 23.6474 3.95394 23.0967 3.40327C22.5461 2.8526 21.8445 2.47759 21.0807 2.32566C20.3169 2.17373 19.5252 2.25171 18.8057 2.54973C18.0862 2.84775 17.4712 3.35242 17.0386 3.99994C16.6059 4.64746 16.375 5.40874 16.375 6.1875C16.3761 7.23144 16.7914 8.23229 17.5295 8.97047C18.2677 9.70864 19.2686 10.1239 20.3125 10.125ZM20.3125 4.875C20.5721 4.875 20.8258 4.95198 21.0417 5.0962C21.2575 5.24042 21.4258 5.4454 21.5251 5.68523C21.6244 5.92506 21.6504 6.18896 21.5998 6.44356C21.5491 6.69816 21.4241 6.93202 21.2406 7.11558C21.057 7.29914 20.8232 7.42414 20.5686 7.47478C20.314 7.52543 20.0501 7.49943 19.8102 7.40009C19.5704 7.30075 19.3654 7.13253 19.2212 6.91669C19.077 6.70085 19 6.44709 19 6.1875C19.0003 5.8395 19.1387 5.50584 19.3848 5.25977C19.6308 5.0137 19.9645 4.87531 20.3125 4.875Z" fill="white"/>
<path d="M34.6918 43.7373C34.7426 43.5726 34.7605 43.3995 34.7445 43.2278C34.7284 43.0562 34.6787 42.8894 34.5982 42.737C34.5177 42.5846 34.4079 42.4495 34.2752 42.3395C34.1425 42.2295 33.9894 42.1467 33.8247 42.0959C33.66 42.045 33.4869 42.0271 33.3153 42.0432C33.1437 42.0592 32.9769 42.1089 32.8244 42.1895C32.672 42.27 32.537 42.3797 32.427 42.5124C32.3169 42.6451 32.2342 42.7982 32.1833 42.9629C32.0932 43.2548 31.9133 43.5108 31.6693 43.6947C31.4253 43.8785 31.1295 43.9807 30.8241 43.9868C30.5187 43.9929 30.2191 43.9026 29.9679 43.7287C29.7168 43.5547 29.5268 43.3061 29.4251 43.018C29.3675 42.8555 29.2785 42.7059 29.1631 42.5778C29.0478 42.4497 28.9083 42.3456 28.7526 42.2714C28.597 42.1971 28.4283 42.1543 28.2561 42.1453C28.0839 42.1363 27.9117 42.1613 27.7492 42.2189C27.5866 42.2764 27.4371 42.3654 27.3089 42.4808C27.1808 42.5962 27.0767 42.7357 27.0025 42.8913C26.9283 43.0469 26.8854 43.2157 26.8764 43.3878C26.8674 43.56 26.8924 43.7323 26.95 43.8948C27.2361 44.7029 27.7696 45.4003 28.4747 45.888C29.1798 46.3756 30.0206 46.6287 30.8777 46.6112C31.7348 46.5938 32.5647 46.3067 33.2493 45.7908C33.934 45.2749 34.4387 44.5564 34.6918 43.7373Z" fill="white"/>
<path d="M52.1989 42.0954C52.0343 42.044 51.861 42.0257 51.6892 42.0415C51.5175 42.0574 51.3505 42.1071 51.198 42.1877C51.0455 42.2684 50.9105 42.3784 50.8007 42.5115C50.6909 42.6446 50.6085 42.798 50.5583 42.9631C50.4682 43.255 50.2883 43.511 50.0443 43.6948C49.8003 43.8786 49.5045 43.9809 49.1991 43.987C48.8937 43.9931 48.5941 43.9027 48.3429 43.7288C48.0918 43.5549 47.9018 43.3063 47.8001 43.0182C47.6838 42.69 47.4419 42.4214 47.1276 42.2715C46.8133 42.1217 46.4524 42.1028 46.1242 42.219C45.7959 42.3353 45.5274 42.5772 45.3775 42.8915C45.2276 43.2058 45.2087 43.5667 45.325 43.895C45.6111 44.7031 46.1446 45.4005 46.8497 45.8881C47.5548 46.3758 48.3956 46.6288 49.2527 46.6114C50.1098 46.594 50.9397 46.3069 51.6243 45.791C52.309 45.2751 52.8137 44.5565 53.0668 43.7375C53.1693 43.4046 53.1355 43.0447 52.9728 42.7368C52.8101 42.4289 52.5317 42.1982 52.1989 42.0954Z" fill="white"/>
<path d="M48.8029 55.1346C48.6811 55.0127 48.5364 54.916 48.3772 54.85C48.218 54.784 48.0473 54.75 47.875 54.75C47.7026 54.75 47.532 54.784 47.3727 54.85C47.2135 54.916 47.0689 55.0127 46.947 55.1346L45.25 56.8315L43.5529 55.1346C43.4311 55.0127 43.2864 54.916 43.1272 54.85C42.968 54.784 42.7973 54.75 42.625 54.75C42.4526 54.75 42.282 54.784 42.1227 54.85C41.9635 54.916 41.8189 55.0127 41.697 55.1346L40 56.8315L38.3029 55.1346C38.1811 55.0127 38.0365 54.916 37.8772 54.85C37.718 54.784 37.5473 54.75 37.375 54.75C37.2026 54.75 37.032 54.784 36.8727 54.85C36.7135 54.916 36.5689 55.0127 36.447 55.1346L34.75 56.8315L33.0529 55.1346C32.9311 55.0127 32.7865 54.916 32.6272 54.85C32.468 54.784 32.2973 54.75 32.125 54.75C31.9526 54.75 31.782 54.784 31.6227 54.85C31.4635 54.916 31.3189 55.0127 31.197 55.1346L28.572 57.7596C28.333 58.0071 28.2007 58.3387 28.2037 58.6828C28.2067 59.027 28.3447 59.3561 28.588 59.5995C28.8314 59.8428 29.1606 59.9809 29.5047 59.9839C29.8488 59.9869 30.1804 59.8546 30.4279 59.6155L32.125 57.9186L33.822 59.6155C33.9439 59.7374 34.0885 59.8341 34.2477 59.9001C34.407 59.9661 34.5776 60.0001 34.75 60.0001C34.9223 60.0001 35.093 59.9661 35.2522 59.9001C35.4115 59.8341 35.5561 59.7374 35.6779 59.6155L37.375 57.9186L39.072 59.6155C39.1939 59.7374 39.3385 59.8341 39.4977 59.9001C39.657 59.9661 39.8276 60.0001 40 60.0001C40.1723 60.0001 40.343 59.9661 40.5022 59.9001C40.6614 59.8341 40.8061 59.7374 40.9279 59.6155L42.625 57.9186L44.322 59.6155C44.4439 59.7374 44.5885 59.8341 44.7477 59.9001C44.907 59.9661 45.0776 60.0001 45.25 60.0001C45.4223 60.0001 45.593 59.9661 45.7522 59.9001C45.9114 59.8341 46.0561 59.7374 46.1779 59.6155L47.875 57.9186L49.572 59.6155C49.8196 59.8546 50.1511 59.9869 50.4953 59.9839C50.8394 59.9809 51.1686 59.8428 51.4119 59.5995C51.6553 59.3561 51.7933 59.027 51.7963 58.6828C51.7993 58.3387 51.667 58.0071 51.4279 57.7596L48.8029 55.1346Z" fill="white"/>
<path d="M54.4375 6.1875C54.7856 6.1875 55.1194 6.04922 55.3656 5.80308C55.6117 5.55694 55.75 5.2231 55.75 4.875V2.25C55.75 1.9019 55.6117 1.56806 55.3656 1.32192C55.1194 1.07578 54.7856 0.9375 54.4375 0.9375C54.0894 0.9375 53.7556 1.07578 53.5094 1.32192C53.2633 1.56806 53.125 1.9019 53.125 2.25V4.875C53.125 5.2231 53.2633 5.55694 53.5094 5.80308C53.7556 6.04922 54.0894 6.1875 54.4375 6.1875Z" fill="white"/>
<path d="M58.375 7.50001C58.5473 7.50021 58.7181 7.46634 58.8773 7.40035C59.0366 7.33435 59.1812 7.23753 59.3029 7.11545L61.9279 4.49045C62.0533 4.36938 62.1533 4.22455 62.222 4.06442C62.2908 3.90429 62.327 3.73206 62.3285 3.55779C62.3301 3.38352 62.2968 3.21069 62.2309 3.04939C62.1649 2.88809 62.0674 2.74154 61.9442 2.61831C61.8209 2.49507 61.6744 2.39762 61.5131 2.33162C61.3518 2.26563 61.179 2.23242 61.0047 2.23394C60.8304 2.23545 60.6582 2.27166 60.4981 2.34044C60.3379 2.40923 60.1931 2.50922 60.072 2.63458L57.447 5.25958C57.2635 5.44313 57.1386 5.67697 57.0879 5.93154C57.0373 6.1861 57.0633 6.44996 57.1626 6.68975C57.262 6.92954 57.4301 7.13451 57.6459 7.27873C57.8617 7.42295 58.1154 7.49996 58.375 7.50001Z" fill="white"/>
<path d="M49.572 7.11542C49.8196 7.35451 50.1511 7.4868 50.4953 7.48381C50.8394 7.48082 51.1686 7.34278 51.4119 7.09943C51.6553 6.85609 51.7933 6.5269 51.7963 6.18276C51.7993 5.83863 51.667 5.50709 51.4279 5.25955L48.8029 2.63455C48.5554 2.39547 48.2238 2.26317 47.8797 2.26616C47.5356 2.26915 47.2064 2.40719 46.963 2.65054C46.7197 2.89388 46.5817 3.22308 46.5787 3.56721C46.5757 3.91134 46.708 4.24288 46.947 4.49042L49.572 7.11542Z" fill="white"/>
</svg>
