<svg width="146" height="150" viewBox="0 0 146 150" fill="none" xmlns="http://www.w3.org/2000/svg">
<path d="M124.85 100.2L92.7496 96.3H53.3495L21.2496 100.2C9.24948 101.7 0.149658 111.9 0.149658 124V150H145.85V124C145.95 111.9 136.85 101.6 124.85 100.2Z" fill="#DEDEDF"/>
<path d="M114.45 45.3C114.45 20.3001 95.8495 0 73.0496 0C50.2498 0 31.6497 20.3001 31.6497 45.3C31.6497 59.4 37.5496 71.9999 46.7497 80.3002C49.2497 83.2002 53.9496 90.3001 45.4497 97.7003L73.0496 140.8L100.65 97.7003C92.1497 90.3004 96.8495 83.2002 99.3496 80.3002C108.55 71.9999 114.45 59.4 114.45 45.3Z" fill="#608287"/>
<path d="M73.0497 86.6C88.2497 86.6 100.65 74.2 100.65 59V41.5C92.9496 35.7 83.3495 32.2999 73.0497 32.2999C62.6496 32.2999 53.1495 35.6997 45.4497 41.5V59C45.4497 74.3 57.8497 86.6 73.0497 86.6Z" fill="#FACCB4"/>
</svg>
