<svg width="25" height="25" viewBox="0 0 25 25" fill="none" xmlns="http://www.w3.org/2000/svg">
<path d="M21.0394 6.0571H20.8571C21.4099 5.4141 21.7458 4.58147 21.7458 3.66926C21.7458 1.64602 20.0999 0 18.077 0C16.0531 0 14.4072 1.64602 14.4072 3.66926C14.4072 4.58147 14.7434 5.4141 15.2962 6.0571H15.1139C14.0926 6.0571 13.2617 6.88817 13.2617 7.91006V13.9966C13.2617 15.0186 14.0926 15.8495 15.1139 15.8495H15.1844V22.5061C15.1844 23.5629 15.7413 24.3589 16.4795 24.3589H19.6742C20.4123 24.3589 20.9685 23.563 20.9685 22.5061V15.8492H21.0397C22.0604 15.8492 22.8916 15.0179 22.8916 13.9963V7.91006C22.8913 6.88786 22.0604 6.0571 21.0394 6.0571Z" fill="white"/>
<path d="M10.3417 16.4332C11.1426 16.229 11.7376 15.5018 11.7376 14.6378V8.55057C11.7376 7.52941 10.9063 6.69772 9.88508 6.69772H9.70372C10.2562 6.05523 10.5927 5.22261 10.5927 4.31097C10.5927 2.2871 8.94589 0.641083 6.92291 0.641083C4.89998 0.641083 3.25411 2.2871 3.25411 4.31097C3.25411 5.22256 3.58996 6.05518 4.14241 6.69772H3.96074C2.9388 6.69772 2.10887 7.52941 2.10887 8.55057V14.6378C2.10887 15.5018 2.70317 16.229 3.50409 16.4332L2.21808 18.3378C2.08543 18.5344 2.07171 18.7879 2.18378 18.9976C2.29455 19.2065 2.51245 19.3372 2.75 19.3372H4.03257V23.1472C4.03257 24.204 4.58783 25 5.32575 25H8.52105C9.25861 25 9.81548 24.2041 9.81548 23.1472V19.3372H11.0977C11.1005 19.3366 11.1033 19.3366 11.1062 19.3372C11.4595 19.3372 11.747 19.0507 11.747 18.6961C11.747 18.5295 11.6827 18.3771 11.5784 18.2629L10.3417 16.4332Z" fill="white"/>
</svg>
