<svg width="134" height="150" viewBox="0 0 134 150" fill="none" xmlns="http://www.w3.org/2000/svg">
<path d="M40.3501 57.9C46.37 57.9 51.2501 53.0199 51.2501 46.9999C51.2501 40.98 46.37 36.0999 40.3501 36.0999C34.3302 36.0999 29.4501 40.98 29.4501 46.9999C29.4501 53.0199 34.3302 57.9 40.3501 57.9Z" fill="#EEB490"/>
<path d="M93.5499 57.9C99.5698 57.9 104.45 53.0199 104.45 46.9999C104.45 40.98 99.5698 36.0999 93.5499 36.0999C87.53 36.0999 82.6499 40.98 82.6499 46.9999C82.6499 53.0199 87.53 57.9 93.5499 57.9Z" fill="#EEB490"/>
<path d="M66.9499 68.0002C85.7276 68.0002 100.95 52.7778 100.95 34.0001C100.95 15.2224 85.7276 0 66.9499 0C48.1722 0 32.9498 15.2224 32.9498 34.0001C32.9498 52.7778 48.1722 68.0002 66.9499 68.0002Z" fill="#56545F"/>
<path d="M91.8499 84H42.05C19.2499 84 0.75 102.5 0.75 125.3V150H133.25V125.3C133.15 102.5 114.65 84 91.8499 84Z" fill="#9D90C5"/>
<path d="M66.9499 98.6998C77.1671 98.6998 85.4498 90.4171 85.4498 80.1999C85.4498 69.9827 77.1671 61.7001 66.9499 61.7001C56.7327 61.7001 48.4501 69.9827 48.4501 80.1999C48.4501 90.4171 56.7327 98.6998 66.9499 98.6998Z" fill="#EEB490"/>
<path d="M89.5501 21.9C86.5501 27.2001 77.55 31.1001 66.9502 31.1001C56.3504 31.1001 47.3503 27.2001 44.3503 21.9C41.0505 26.4999 39.1503 32.0999 39.1503 38.1001V58.5001C39.1503 73.9001 51.6502 86.3001 66.9502 86.3001C82.2502 86.3001 94.7502 73.8001 94.7502 58.5001V38.2001C94.7499 32.0999 92.85 26.4999 89.5501 21.9Z" fill="#FACCB4"/>
<path d="M100.85 31.4001C99.45 13.8 84.8499 0 66.9499 0C49.0499 0 34.4498 13.8 33.0498 31.4001H100.85Z" fill="#F1F3F7"/>
</svg>
